<svg xmlns="http://www.w3.org/2000/svg" width="702.0903930664062" height="304.5303955078125" viewBox="-495.35009765625 -48.68790817260742 702.0903930664062 304.5303955078125"><title>Neo4j Graph Visualization</title><desc>Created using Neo4j (http://www.neo4j.com/)</desc><g class="layer relationships"><g class="relationship" transform="translate(-466.350099907201 133.79532057940108) rotate(315.87552251291095)"><path class="outline" fill="#A5ABB6" stroke="none" d="M 24.018736134675446,-6.953439040707552 L 24.277555179777966,-5.987513214418485 A 322.6686948400791 322.6686948400791 0 0 1 94.19789733645678,-16.695763139384326 L 94.15577220456866,-17.694875482048246 A 323.6686948400791 323.6686948400791 0 0 0 24.018736134675446,-6.953439040707552 Z M 116.19656600132393,-17.87300245710196 L 116.17059435972692,-16.873339777077945 A 322.6686948400791 322.6686948400791 0 0 1 186.25487390489374,-7.296564516194023 L 185.52535303878352,-4.386616182303919 L 193.16634016165568,-6.079340550918522 L 187.2275683930407,-11.176495628047494 L 186.4980475269305,-8.266547294157391 A 323.6686948400791 323.6686948400791 0 0 0 116.19656600132393,-17.87300245710196"/><text text-anchor="middle" pointer-events="none" font-size="8px" fill="#000000" x="105.17869309525086" y="-14.471629203393434" font-family="sans-serif">road</text></g><g class="relationship" transform="translate(-310.28267027133705 -17.57388090729529) rotate(368.773882363858)"><path class="outline" fill="#A5ABB6" stroke="none" d="M 21.40063509461097,-12.933012701892217 L 21.90063509461097,-12.06698729810778 A 101.80790199666451 101.80790199666451 0 0 1 60.90314542588427,-25.008621966414196 L 60.786244473859455,-26.001765544863815 A 102.80790199666451 102.80790199666451 0 0 0 21.40063509461097,-12.933012701892217 Z M 80.1827892833211,-26.441562733147947 L 80.11102239529905,-25.4441413007616 A 101.80790199666451 101.80790199666451 0 0 1 119.66002575603835,-14.283583375585108 L 118.27932429542,-11.620190149520596 L 126.10472686029195,-11.50584550515302 L 121.50096103686283,-17.834774343671125 L 120.12025957624448,-15.171381117606613 A 102.80790199666451 102.80790199666451 0 0 0 80.1827892833211,-26.441562733147947"/><text text-anchor="middle" pointer-events="none" font-size="8px" fill="#000000" x="70.48545315381696" y="-23.18037123202022" font-family="sans-serif">trek</text></g><g class="relationship" transform="translate(-163.7184002836471 5.047060870981838) rotate(403.6438830711898)"><path class="outline" fill="#A5ABB6" stroke="none" d="M 21.40063509461097,12.933012701892217 L 21.90063509461097,12.06698729810778 A 82.19931430156812 82.19931430156812 0 0 0 49.987750607515444,22.043098655764283 L 49.829445860712575,23.03048895708372 A 83.19931430156812 83.19931430156812 0 0 1 21.40063509461097,12.933012701892217 Z M 71.90153756601931,23.602078050546496 L 71.79455056263656,22.607817631387007 A 82.19931430156812 82.19931430156812 0 0 0 100.36036509009949,14.098816747723308 L 98.9968474076658,11.426585558306751 L 106.82282414581042,11.362647353614108 L 102.17838866667776,17.661791666945387 L 100.81487098424407,14.98956047752883 A 83.19931430156812 83.19931430156812 0 0 1 71.90153756601931,23.602078050546496"/><text text-anchor="middle" pointer-events="none" font-size="8px" fill="#000000" x="60.8593903128582" y="26.551890993667314" font-family="sans-serif">road</text></g><g class="relationship" transform="translate(-70.30223948612242 94.14259917596682) rotate(340.62487967856373)"><path class="outline" fill="#A5ABB6" stroke="none" d="M 25 0.5 L 60.154293145849095 0.5 L 60.154293145849095 -0.5 L 25 -0.5 Z M 79.4902306458491 0.5 L 114.64452379169819 0.5 L 114.64452379169819 3.5 L 121.64452379169819 0 L 114.64452379169819 -3.5 L 114.64452379169819 -0.5 L 79.4902306458491 -0.5 Z"/><text text-anchor="middle" pointer-events="none" font-size="8px" fill="#000000" x="69.8222618958491" y="3" font-family="sans-serif">trek</text></g><g class="relationship" transform="translate(-466.350099907201 133.79532057940108) rotate(315.87552251291095)"><path class="outline" fill="#A5ABB6" stroke="none" d="M 24.018736134675446,6.953439040707552 L 24.277555179777966,5.987513214418485 A 322.6686948400791 322.6686948400791 0 0 0 95.53264492072533,16.74927196747649 L 95.49465637725007,17.748550142242948 A 323.6686948400791 323.6686948400791 0 0 1 24.018736134675446,6.953439040707552 Z M 114.85698920461905,17.90503061242589 L 114.83515629135154,16.905268978886056 A 322.6686948400791 322.6686948400791 0 0 0 186.25487390489374,7.296564516194023 L 185.52535303878352,4.386616182303919 L 193.16634016165568,6.079340550918522 L 187.2275683930407,11.176495628047494 L 186.4980475269305,8.266547294157391 A 323.6686948400791 323.6686948400791 0 0 1 114.85698920461905,17.90503061242589"/><text text-anchor="middle" pointer-events="none" font-size="8px" fill="#000000" x="105.1786930952509" y="20.471629203393434" font-family="sans-serif">trek</text></g><g class="relationship" transform="translate(-310.28267027133705 -17.57388090729529) rotate(368.773882363858)"><path class="outline" fill="#A5ABB6" stroke="none" d="M 25 0.5 L 47.41741333041479 0.5 L 47.41741333041479 -0.5 L 25 -0.5 Z M 93.88225708041479 0.5 L 116.29967041082958 0.5 L 116.29967041082958 3.5 L 123.29967041082958 0 L 116.29967041082958 -3.5 L 116.29967041082958 -0.5 L 93.88225708041479 -0.5 Z"/><text text-anchor="middle" pointer-events="none" font-size="8px" fill="#000000" x="70.64983520541479" y="3" font-family="sans-serif">twowheeler</text></g><g class="relationship" transform="translate(-310.28267027133705 -17.57388090729529) rotate(368.773882363858)"><path class="outline" fill="#A5ABB6" stroke="none" d="M 21.40063509461097,12.933012701892217 L 21.90063509461097,12.06698729810778 A 101.80790199666451 101.80790199666451 0 0 0 59.5819769684844,24.844344774485094 L 59.45209894462637,25.83587475331514 A 102.80790199666451 102.80790199666451 0 0 1 21.40063509461097,12.933012701892217 Z M 81.52308267089388,26.3363121601229 L 81.4382789115658,25.33991448730154 A 101.80790199666451 101.80790199666451 0 0 0 119.66002575603835,14.283583375585108 L 118.27932429542,11.620190149520596 L 126.10472686029195,11.50584550515302 L 121.50096103686283,17.834774343671125 L 120.12025957624448,15.171381117606613 A 102.80790199666451 102.80790199666451 0 0 1 81.52308267089388,26.3363121601229"/><text text-anchor="middle" pointer-events="none" font-size="8px" fill="#000000" x="70.48545315381699" y="29.18037123202022" font-family="sans-serif">road</text></g><g class="relationship" transform="translate(-163.7184002836471 5.047060870981838) rotate(403.6438830711898)"><path class="outline" fill="#A5ABB6" stroke="none" d="M 25 0.5 L 37.81328682047416 0.5 L 37.81328682047416 -0.5 L 25 -0.5 Z M 84.27813057047416 0.5 L 97.09141739094832 0.5 L 97.09141739094832 3.5 L 104.09141739094832 0 L 97.09141739094832 -3.5 L 97.09141739094832 -0.5 L 84.27813057047416 -0.5 Z"/><text text-anchor="middle" pointer-events="none" font-size="8px" fill="#000000" x="61.04570869547416" y="3" font-family="sans-serif">twowheeler</text></g><g class="relationship" transform="translate(-163.7184002836471 5.047060870981838) rotate(403.6438830711898)"><path class="outline" fill="#A5ABB6" stroke="none" d="M 21.40063509461097,-12.933012701892217 L 21.90063509461097,-12.06698729810778 A 82.19931430156812 82.19931430156812 0 0 1 51.30242945959932,-22.242982655722045 L 51.16011850621497,-23.232804656157896 A 83.19931430156812 83.19931430156812 0 0 0 21.40063509461097,-12.933012701892217 Z M 70.56217699446088,-23.735249334744566 L 70.47128820754544,-22.73938828599678 A 82.19931430156812 82.19931430156812 0 0 1 100.36036509009949,-14.098816747723308 L 98.9968474076658,-11.426585558306751 L 106.82282414581042,-11.362647353614108 L 102.17838866667776,-17.661791666945387 L 100.81487098424407,-14.98956047752883 A 83.19931430156812 83.19931430156812 0 0 0 70.56217699446088,-23.735249334744566"/><text text-anchor="middle" pointer-events="none" font-size="8px" fill="#000000" x="60.85939031285819" y="-20.551890993667314" font-family="sans-serif">trek</text></g><g class="relationship" transform="translate(-466.350099907201 133.79532057940108) rotate(373.5578821638212)"><path class="outline" fill="#A5ABB6" stroke="none" d="M 21.40063509461097,12.933012701892217 L 21.90063509461097,12.06698729810778 A 245.5603113514643 245.5603113514643 0 0 0 111.090212126315,42.657527797076796 L 110.95342056395233,43.64812764992678 A 246.5603113514643 246.5603113514643 0 0 1 21.40063509461097,12.933012701892217 Z M 172.6390689944038,44.37556219027084 L 172.52567573142966,43.382012006378716 A 245.5603113514643 245.5603113514643 0 0 0 262.41183387238976,14.903241074830822 L 260.97351866842905,12.270514470328294 L 268.79458181688915,11.985960033006211 L 264.32958747767077,18.413543214167525 L 262.89127227371006,15.780816609664997 A 246.5603113514643 246.5603113514643 0 0 1 172.6390689944038,44.37556219027084"/><text text-anchor="middle" pointer-events="none" font-size="8px" fill="#000000" x="141.77930023773837" y="48.44872338557545" font-family="sans-serif">PublicTransport</text></g><g class="relationship" transform="translate(-183.71784181270468 201.95137757754236) rotate(365.53034216844446)"><path class="outline" fill="#A5ABB6" stroke="none" d="M 24.018736134675446,-6.953439040707552 L 24.277555179777966,-5.987513214418485 A 226.94413496241603 226.94413496241603 0 0 1 57.54021792667276,-12.286123178791513 L 57.427966506031666,-13.279803015843697 A 227.94413496241603 227.94413496241603 0 0 0 24.018736134675446,-6.953439040707552 Z M 103.91153382397877,-13.760594299179246 L 103.819859983171,-12.764805211615254 A 226.94413496241603 226.94413496241603 0 0 1 137.20568871182013,-7.155557436889277 L 136.48933617107136,-4.242339450304202 L 144.1225894373101,-5.969604506239683 L 138.16082543281848,-11.039848085669377 L 137.4444728920697,-8.126630099084302 A 227.94413496241603 227.94413496241603 0 0 0 103.91153382397877,-13.760594299179246"/><text text-anchor="middle" pointer-events="none" font-size="8px" fill="#000000" x="80.66263314765705" y="-11.208281754008738" font-family="sans-serif">twowheeler</text></g><g class="relationship" transform="translate(-16.102284251620556 218.18051193547745) rotate(323.7404477401196)"><path class="outline" fill="#A5ABB6" stroke="none" d="M 24.018736134675446,-6.953439040707552 L 24.277555179777966,-5.987513214418485 A 130.79242438061627 130.79242438061627 0 0 1 46.6375960901336,-9.93835137371235 L 46.549735271520454,-10.934484134218025 A 131.79242438061627 131.79242438061627 0 0 0 24.018736134675446,-6.953439040707552 Z M 65.9397803029471,-11.212504878540074 L 65.880515479684,-10.214262582940648 A 130.79242438061627 130.79242438061627 0 0 1 88.34463789471937,-6.906127791851413 L 87.65158141671931,-3.9872799509556005 L 95.2707922698096,-5.775470650000559 L 89.26871319871945,-10.79792491304583 L 88.5756567207194,-7.879077072150016 A 131.79242438061627 131.79242438061627 0 0 0 65.9397803029471,-11.212504878540074"/><text text-anchor="middle" pointer-events="none" font-size="8px" fill="#000000" x="56.24680575103657" y="-7.930663040850334" font-family="sans-serif">trek</text></g><g class="relationship" transform="translate(80.3322833212808 147.4470374404749) rotate(263.1237290617398)"><path class="outline" fill="#A5ABB6" stroke="none" d="M 24.018736134675446,6.953439040707552 L 24.277555179777966,5.987513214418485 A 97.07971583859613 97.07971583859613 0 0 0 38.20344150626695,8.647170684684923 L 38.08807041222396,9.640493145248115 A 98.07971583859613 98.07971583859613 0 0 1 24.018736134675446,6.953439040707552 Z M 57.488646710604684,9.961620090085503 L 57.406213639612076,8.965023487238227 A 97.07971583859613 97.07971583859613 0 0 0 71.412494676731,6.7677116416691065 L 70.7323672179308,3.8458241284704937 L 78.34358678399447,5.667728823335058 L 72.31933128846461,10.663561659267257 L 71.63920382966441,7.741674146068644 A 98.07971583859613 98.07971583859613 0 0 1 57.488646710604684,9.961620090085503"/><text text-anchor="middle" pointer-events="none" font-size="8px" fill="#000000" x="47.78867301093827" y="12.78205945134556" transform="rotate(180 47.78867301093827 9.78205945134556)" font-family="sans-serif">trek</text></g><g class="relationship" transform="translate(-466.350099907201 133.79532057940108) rotate(373.5578821638212)"><path class="outline" fill="#A5ABB6" stroke="none" d="M 25 0.5 L 132.1990163438719 0.5 L 132.1990163438719 -0.5 L 25 -0.5 Z M 151.5349538438719 0.5 L 258.7339701877438 0.5 L 258.7339701877438 3.5 L 265.7339701877438 0 L 258.7339701877438 -3.5 L 258.7339701877438 -0.5 L 151.5349538438719 -0.5 Z"/><text text-anchor="middle" pointer-events="none" font-size="8px" fill="#000000" x="141.8669850938719" y="3" font-family="sans-serif">trek</text></g><g class="relationship" transform="translate(-466.350099907201 133.79532057940108) rotate(373.5578821638212)"><path class="outline" fill="#A5ABB6" stroke="none" d="M 21.40063509461097,-12.933012701892217 L 21.90063509461097,-12.06698729810778 A 245.5603113514643 245.5603113514643 0 0 1 130.8090222300617,-44.57370779487567 L 130.75253195904054,-45.57211094455016 A 246.5603113514643 246.5603113514643 0 0 0 21.40063509461097,-12.933012701892217 Z M 152.80009233854344,-45.83210913470384 L 152.7671620525469,-44.832651483642934 A 245.5603113514643 245.5603113514643 0 0 1 262.41183387238976,-14.903241074830822 L 260.97351866842905,-12.270514470328294 L 268.79458181688915,-11.985960033006211 L 264.32958747767077,-18.413543214167525 L 262.89127227371006,-15.780816609664997 A 246.5603113514643 246.5603113514643 0 0 0 152.80009233854344,-45.83210913470384"/><text text-anchor="middle" pointer-events="none" font-size="8px" fill="#000000" x="141.77930023773828" y="-42.44872338557545" font-family="sans-serif">road</text></g><g class="relationship" transform="translate(-183.71784181270468 201.95137757754236) rotate(365.53034216844446)"><path class="outline" fill="#A5ABB6" stroke="none" d="M 24.018736134675446,6.953439040707552 L 24.277555179777966,5.987513214418485 A 226.94413496241603 226.94413496241603 0 0 0 71.02663003536031,13.403580815895793 L 70.9738047466654,14.402184585603436 A 227.94413496241603 227.94413496241603 0 0 1 24.018736134675446,6.953439040707552 Z M 90.34537795005104,14.602549662512871 L 90.31321937545604,13.603066883231492 A 226.94413496241603 226.94413496241603 0 0 0 137.20568871182013,7.155557436889277 L 136.48933617107136,4.242339450304202 L 144.1225894373101,5.969604506239683 L 138.16082543281848,11.039848085669377 L 137.4444728920697,8.126630099084302 A 227.94413496241603 227.94413496241603 0 0 1 90.34537795005104,14.602549662512871"/><text text-anchor="middle" pointer-events="none" font-size="8px" fill="#000000" x="80.66263314765709" y="17.208281754008738" font-family="sans-serif">trek</text></g><g class="relationship" transform="translate(-16.102284251620556 218.18051193547745) rotate(323.7404477401196)"><path class="outline" fill="#A5ABB6" stroke="none" d="M 24.018736134675446,6.953439040707552 L 24.277555179777966,5.987513214418485 A 130.79242438061627 130.79242438061627 0 0 0 33.262266488691296,8.058498779840392 L 33.07214187563605,9.040258746181763 A 131.79242438061627 131.79242438061627 0 0 1 24.018736134675446,6.953439040707552 Z M 79.46614205636186,9.705470943544697 L 79.30424339950031,8.718663553571162 A 130.79242438061627 130.79242438061627 0 0 0 88.34463789471937,6.906127791851413 L 87.65158141671931,3.9872799509556005 L 95.2707922698096,5.775470650000559 L 89.26871319871945,10.79792491304583 L 88.5756567207194,7.879077072150016 A 131.79242438061627 131.79242438061627 0 0 1 79.46614205636186,9.705470943544697"/><text text-anchor="middle" pointer-events="none" font-size="8px" fill="#000000" x="56.24680575103659" y="13.930663040850334" font-family="sans-serif">twowheeler</text></g><g class="relationship" transform="translate(80.3322833212808 147.4470374404749) rotate(263.1237290617398)"><path class="outline" fill="#A5ABB6" stroke="none" d="M 24.018736134675446,-6.953439040707552 L 24.277555179777966,-5.987513214418485 A 97.07971583859613 97.07971583859613 0 0 1 24.949774816305258,-6.165056384964686 L 24.697880179980828,-7.132811050254915 A 98.07971583859613 98.07971583859613 0 0 0 24.018736134675446,-6.953439040707552 Z M 70.9544953671509,-7.898471063912083 L 70.73476735661436,-6.922909891362835 A 97.07971583859613 97.07971583859613 0 0 1 71.412494676731,-6.7677116416691065 L 70.7323672179308,-3.8458241284704937 L 78.34358678399447,-5.667728823335058 L 72.31933128846461,-10.663561659267257 L 71.63920382966441,-7.741674146068644 A 98.07971583859613 98.07971583859613 0 0 0 70.9544953671509,-7.898471063912083"/><text text-anchor="middle" pointer-events="none" font-size="8px" fill="#000000" x="47.78867301093825" y="-6.78205945134556" transform="rotate(180 47.78867301093825 -9.78205945134556)" font-family="sans-serif">twowheeler</text></g><g class="relationship" transform="translate(-183.71784181270468 201.95137757754236) rotate(316.45182275578236)"><path class="outline" fill="#A5ABB6" stroke="none" d="M 25 0.5 L 65.07177746562475 0.5 L 65.07177746562475 -0.5 L 25 -0.5 Z M 84.40771496562475 0.5 L 124.4794924312495 0.5 L 124.4794924312495 3.5 L 131.4794924312495 0 L 124.4794924312495 -3.5 L 124.4794924312495 -0.5 L 84.40771496562475 -0.5 Z"/><text text-anchor="middle" pointer-events="none" font-size="8px" fill="#000000" x="74.73974621562475" y="3" font-family="sans-serif">trek</text></g><g class="relationship" transform="translate(-183.71784181270468 201.95137757754236) rotate(240.0348826973917)"><path class="outline" fill="#A5ABB6" stroke="none" d="M 25 0.5 L 113.53048715574282 0.5 L 113.53048715574282 -0.5 L 25 -0.5 Z M 132.86642465574283 0.5 L 221.39691181148564 0.5 L 221.39691181148564 3.5 L 228.39691181148564 0 L 221.39691181148564 -3.5 L 221.39691181148564 -0.5 L 132.86642465574283 -0.5 Z"/><text text-anchor="middle" pointer-events="none" font-size="8px" fill="#000000" x="123.19845590574282" y="3" transform="rotate(180 123.19845590574282 0)" font-family="sans-serif">trek</text></g><g class="relationship" transform="translate(-16.102284251620556 218.18051193547745) rotate(363.4612274268758)"><path class="outline" fill="#A5ABB6" stroke="none" d="M 24.018736134675446,-6.953439040707552 L 24.277555179777966,-5.987513214418485 A 177.99722431298238 177.99722431298238 0 0 1 45.11811184969976,-10.255663690203818 L 44.97637640941389,-11.245568263870865 A 178.99722431298238 178.99722431298238 0 0 0 24.018736134675446,-6.953439040707552 Z M 91.4365520169442,-11.805844123771891 L 91.31872937868526,-10.812809468830949 A 177.99722431298238 177.99722431298238 0 0 1 112.25615201185947,-7.048470977673036 L 111.54980068476004,-4.132811909348194 L 119.17708172580068,-5.886261059161856 L 113.19795378132537,-10.936016402106159 L 112.49160245422594,-8.020357333781316 A 178.99722431298238 178.99722431298238 0 0 0 91.4365520169442,-11.805844123771891"/><text text-anchor="middle" pointer-events="none" font-size="8px" fill="#000000" x="68.19423686334586" y="-9.539643900444133" font-family="sans-serif">twowheeler</text></g><g class="relationship" transform="translate(127.11024242887108 226.84249356304989) rotate(239.49439558150203)"><path class="outline" fill="#A5ABB6" stroke="none" d="M 21.40063509461097,12.933012701892217 L 21.90063509461097,12.06698729810778 A 44.01993164383278 44.01993164383278 0 0 0 32.90127588480908,16.565602394445307 L 32.65117724492942,17.533822756930185 A 45.01993164383278 45.01993164383278 0 0 1 21.40063509461097,12.933012701892217 Z M 52.03864725072436,18.224729133955883 L 51.85810396606323,17.2411620938596 A 44.01993164383278 44.01993164383278 0 0 0 63.15106440025465,13.537018439551115 L 61.83980860553402,10.838758214737437 L 69.66554755727334,10.92713162267192 L 64.89940545988216,17.134698739302685 L 63.58814966516153,14.436438514489009 A 45.01993164383278 45.01993164383278 0 0 1 52.03864725072436,18.224729133955883"/><text text-anchor="middle" pointer-events="none" font-size="8px" fill="#000000" x="42.32506182543427" y="21.436297101328236" transform="rotate(180 42.32506182543427 18.436297101328236)" font-family="sans-serif">trek</text></g><g class="relationship" transform="translate(-16.102284251620556 218.18051193547745) rotate(363.4612274268758)"><path class="outline" fill="#A5ABB6" stroke="none" d="M 24.018736134675446,6.953439040707552 L 24.277555179777966,5.987513214418485 A 177.99722431298238 177.99722431298238 0 0 0 58.56794016784285,11.66247594225095 L 58.50176673909988,12.66028407878241 A 178.99722431298238 178.99722431298238 0 0 1 24.018736134675446,6.953439040707552 Z M 77.88097908054333,12.89398325698886 L 77.83888707435665,11.894869518210754 A 177.99722431298238 177.99722431298238 0 0 0 112.25615201185947,7.048470977673036 L 111.54980068476004,4.132811909348194 L 119.17708172580068,5.886261059161856 L 113.19795378132537,10.936016402106159 L 112.49160245422594,8.020357333781316 A 178.99722431298238 178.99722431298238 0 0 1 77.88097908054333,12.89398325698886"/><text text-anchor="middle" pointer-events="none" font-size="8px" fill="#000000" x="68.1942368633459" y="15.539643900444133" font-family="sans-serif">trek</text></g><g class="relationship" transform="translate(127.11024242887108 226.84249356304989) rotate(239.49439558150203)"><path class="outline" fill="#A5ABB6" stroke="none" d="M 25 0.5 L 26.462243465360316 0.5 L 26.462243465360316 -0.5 L 25 -0.5 Z M 58.68880596536032 0.5 L 60.15104943072063 0.5 L 60.15104943072063 3.5 L 67.15104943072063 0 L 60.15104943072063 -3.5 L 60.15104943072063 -0.5 L 58.68880596536032 -0.5 Z"/><text text-anchor="middle" pointer-events="none" font-size="8px" fill="#000000" x="42.57552471536032" y="3" transform="rotate(180 42.57552471536032 0)" font-family="sans-serif">twow…</text></g><g class="relationship" transform="translate(127.11024242887108 226.84249356304989) rotate(239.49439558150203)"><path class="outline" fill="#A5ABB6" stroke="none" d="M 21.40063509461097,-12.933012701892217 L 21.90063509461097,-12.06698729810778 A 44.01993164383278 44.01993164383278 0 0 1 31.625614795496272,-16.215561581345042 L 31.346536985461732,-17.175830072938055 A 45.01993164383278 45.01993164383278 0 0 0 21.40063509461097,-12.933012701892217 Z M 53.365461011951915,-17.9605129129682 L 53.15544603080478,-16.98281474497678 A 44.01993164383278 44.01993164383278 0 0 1 63.15106440025465,-13.537018439551115 L 61.83980860553402,-10.838758214737437 L 69.66554755727334,-10.92713162267192 L 64.89940545988216,-17.134698739302685 L 63.58814966516153,-14.436438514489009 A 45.01993164383278 45.01993164383278 0 0 0 53.365461011951915,-17.9605129129682"/><text text-anchor="middle" pointer-events="none" font-size="8px" fill="#000000" x="42.32506182543427" y="-15.436297101328236" transform="rotate(180 42.32506182543427 -18.436297101328236)" font-family="sans-serif">road</text></g><g class="relationship" transform="translate(127.11024242887108 226.84249356304989) rotate(293.35702171788193)"><path class="outline" fill="#A5ABB6" stroke="none" d="M 25 0.5 L 50.68482231501531 0.5 L 50.68482231501531 -0.5 L 25 -0.5 Z M 70.02075981501531 0.5 L 95.70558213003062 0.5 L 95.70558213003062 3.5 L 102.70558213003062 0 L 95.70558213003062 -3.5 L 95.70558213003062 -0.5 L 70.02075981501531 -0.5 Z"/><text text-anchor="middle" pointer-events="none" font-size="8px" fill="#000000" x="60.35279106501531" y="3" font-family="sans-serif">trek</text></g><g class="relationship" transform="translate(177.7403157533188 109.60209360496786) rotate(210.3014768068948)"><path class="outline" fill="#A5ABB6" stroke="none" d="M 25 0.5 L 50.36295389352284 0.5 L 50.36295389352284 -0.5 L 25 -0.5 Z M 69.69889139352284 0.5 L 95.06184528704568 0.5 L 95.06184528704568 3.5 L 102.06184528704568 0 L 95.06184528704568 -3.5 L 95.06184528704568 -0.5 L 69.69889139352284 -0.5 Z"/><text text-anchor="middle" pointer-events="none" font-size="8px" fill="#000000" x="60.03092264352284" y="3" transform="rotate(180 60.03092264352284 0)" font-family="sans-serif">trek</text></g></g><g class="layer nodes"><g class="node" transform="translate(-466.350099907201,133.79532057940108)"><circle class="outline" cx="0" cy="0" r="25" fill="#F16667" stroke="#eb2728" stroke-width="2px"/><text text-anchor="middle" pointer-events="none" font-family="sans-serif" dy="1.5625" font-size="25" fill="#FFFFFF"/><text text-anchor="middle" pointer-events="none" x="0" y="5" font-size="10px" fill="#FFFFFF" font-family="sans-serif"> Darjeeling</text></g><g class="node" transform="translate(68.03733626377432,45.493055093493425)"><circle class="outline" cx="0" cy="0" r="25" fill="#D9C8AE" stroke="#c0a378" stroke-width="2px"/><text text-anchor="middle" pointer-events="none" font-family="sans-serif" dy="1.5625" font-size="25" fill="#2A2C34"/><text text-anchor="middle" pointer-events="none" x="0" y="5" font-size="10px" fill="#2A2C34" font-family="sans-serif"> Sandak…</text></g><g class="node" transform="translate(-310.28267027133705,-17.57388090729529)"><circle class="outline" cx="0" cy="0" r="25" fill="#8DCC93" stroke="#5db665" stroke-width="2px"/><text text-anchor="middle" pointer-events="none" font-family="sans-serif" dy="1.5625" font-size="25" fill="#2A2C34"/><text text-anchor="middle" pointer-events="none" x="0" y="5" font-size="10px" fill="#2A2C34" font-family="sans-serif"> Tumbling</text></g><g class="node" transform="translate(-163.7184002836471,5.047060870981838)"><circle class="outline" cx="0" cy="0" r="25" fill="#8DCC93" stroke="#5db665" stroke-width="2px"/><text text-anchor="middle" pointer-events="none" font-family="sans-serif" dy="1.5625" font-size="25" fill="#2A2C34"/><text text-anchor="middle" pointer-events="none" x="0" y="5" font-size="10px" fill="#2A2C34" font-family="sans-serif"> Gairibus</text></g><g class="node" transform="translate(-70.30223948612242,94.14259917596682)"><circle class="outline" cx="0" cy="0" r="25" fill="#8DCC93" stroke="#5db665" stroke-width="2px"/><text text-anchor="middle" pointer-events="none" font-family="sans-serif" dy="1.5625" font-size="25" fill="#2A2C34"/><text text-anchor="middle" pointer-events="none" x="0" y="5" font-size="10px" fill="#2A2C34" font-family="sans-serif"> BhikeBh…</text></g><g class="node" transform="translate(-183.71784181270468,201.95137757754236)"><circle class="outline" cx="0" cy="0" r="25" fill="#F16667" stroke="#eb2728" stroke-width="2px"/><text text-anchor="middle" pointer-events="none" font-family="sans-serif" dy="1.5625" font-size="25" fill="#FFFFFF"/><text text-anchor="middle" pointer-events="none" x="0" y="5" font-size="10px" fill="#FFFFFF" font-family="sans-serif"> Rimbik</text></g><g class="node" transform="translate(-16.102284251620556,218.18051193547745)"><circle class="outline" cx="0" cy="0" r="25" fill="#8DCC93" stroke="#5db665" stroke-width="2px"/><text text-anchor="middle" pointer-events="none" font-family="sans-serif" dy="1.5625" font-size="25" fill="#2A2C34"/><text text-anchor="middle" pointer-events="none" x="0" y="5" font-size="10px" fill="#2A2C34" font-family="sans-serif"> Sirikhola</text></g><g class="node" transform="translate(80.3322833212808,147.4470374404749)"><circle class="outline" cx="0" cy="0" r="25" fill="#8DCC93" stroke="#5db665" stroke-width="2px"/><text text-anchor="middle" pointer-events="none" font-family="sans-serif" dy="1.5625" font-size="25" fill="#2A2C34"/><text text-anchor="middle" pointer-events="none" x="0" y="5" font-size="10px" fill="#2A2C34" font-family="sans-serif"> Gurdum</text></g><g class="node" transform="translate(127.11024242887108,226.84249356304989)"><circle class="outline" cx="0" cy="0" r="25" fill="#8DCC93" stroke="#5db665" stroke-width="2px"/><text text-anchor="middle" pointer-events="none" font-family="sans-serif" dy="1.5625" font-size="25" fill="#2A2C34"/><text text-anchor="middle" pointer-events="none" x="0" y="5" font-size="10px" fill="#2A2C34" font-family="sans-serif"> Rammam</text></g><g class="node" transform="translate(177.7403157533188,109.60209360496786)"><circle class="outline" cx="0" cy="0" r="25" fill="#D9C8AE" stroke="#c0a378" stroke-width="2px"/><text text-anchor="middle" pointer-events="none" font-family="sans-serif" dy="1.5625" font-size="25" fill="#2A2C34"/><text text-anchor="middle" pointer-events="none" x="0" y="5" font-size="10px" fill="#2A2C34" font-family="sans-serif"> Sabargr…</text></g></g></svg>