<svg xmlns="http://www.w3.org/2000/svg" width="708.3928833007812" height="125.990966796875" viewBox="-336.8820495605469 -5.098072052001953 708.3928833007812 125.990966796875"><title>Neo4j Graph Visualization</title><desc>Created using Neo4j (http://www.neo4j.com/)</desc><g class="layer relationships"><g class="relationship" transform="translate(189.2568982872906 79.89494387145096) rotate(348.58262571915816)"><path class="outline" fill="#A5ABB6" stroke="none" d="M 25 0.5 L 57.451278574873854 0.5 L 57.451278574873854 -0.5 L 25 -0.5 Z M 91.89659107487385 0.5 L 124.34786964974771 0.5 L 124.34786964974771 3.5 L 131.3478696497477 0 L 124.34786964974771 -3.5 L 124.34786964974771 -0.5 L 91.89659107487385 -0.5 Z"/><text text-anchor="middle" pointer-events="none" font-size="8px" fill="#000000" x="74.67393482487385" y="3" font-family="sans-serif">ORIGIN</text></g><g class="relationship" transform="translate(189.2568982872906 79.89494387145096) rotate(535.7862697259193)"><path class="outline" fill="#A5ABB6" stroke="none" d="M 25 0.5 L 32.08746386081663 0.5 L 32.08746386081663 -0.5 L 25 -0.5 Z M 91.27496386081663 0.5 L 98.36242772163325 0.5 L 98.36242772163325 3.5 L 105.36242772163325 0 L 98.36242772163325 -3.5 L 98.36242772163325 -0.5 L 91.27496386081663 -0.5 Z"/><text text-anchor="middle" pointer-events="none" font-size="8px" fill="#000000" x="61.68121386081663" y="3" transform="rotate(180 61.68121386081663 0)" font-family="sans-serif">DESTINATION</text></g><g class="relationship" transform="translate(-80.02805300518774 80.15174531356283) rotate(363.82917512351116)"><path class="outline" fill="#A5ABB6" stroke="none" d="M 25 0.5 L 49.070604034845516 0.5 L 49.070604034845516 -0.5 L 25 -0.5 Z M 83.51591653484552 0.5 L 107.58652056969103 0.5 L 107.58652056969103 3.5 L 114.58652056969103 0 L 107.58652056969103 -3.5 L 107.58652056969103 -0.5 L 83.51591653484552 -0.5 Z"/><text text-anchor="middle" pointer-events="none" font-size="8px" fill="#000000" x="66.29326028484552" y="3" font-family="sans-serif">ORIGIN</text></g><g class="relationship" transform="translate(-80.02805300518774 80.15174531356283) rotate(186.55017268141484)"><path class="outline" fill="#A5ABB6" stroke="none" d="M 25 0.5 L 64.4701024889899 0.5 L 64.4701024889899 -0.5 L 25 -0.5 Z M 123.6576024889899 0.5 L 163.1277049779798 0.5 L 163.1277049779798 3.5 L 170.1277049779798 0 L 163.1277049779798 -3.5 L 163.1277049779798 -0.5 L 123.6576024889899 -0.5 Z"/><text text-anchor="middle" pointer-events="none" font-size="8px" fill="#000000" x="94.0638524889899" y="3" transform="rotate(180 94.0638524889899 0)" font-family="sans-serif">DESTINATION</text></g></g><g class="layer nodes"><g class="node" transform="translate(342.51083000337746,48.94516588233637)"><circle class="outline" cx="0" cy="0" r="25" fill="#ECB5C9" stroke="#da7298" stroke-width="2px"/><text text-anchor="middle" pointer-events="none" font-family="sans-serif" dy="1.5625" font-size="25" fill="#2A2C34"/><text text-anchor="middle" pointer-events="none" x="0" y="5" font-size="10px" fill="#2A2C34" font-family="sans-serif"> MSN</text></g><g class="node selected" transform="translate(-273.88203166924455,57.89289974401612)"><circle class="outline" cx="0" cy="0" r="25" fill="#ECB5C9" stroke="#da7298" stroke-width="2px"/><text text-anchor="middle" pointer-events="none" font-family="sans-serif" dy="1.5625" font-size="25" fill="#2A2C34"/><text text-anchor="middle" pointer-events="none" x="0" y="5" font-size="10px" fill="#2A2C34" font-family="sans-serif"> GRR</text></g><g class="node" transform="translate(189.2568982872906,79.89494387145096)"><circle class="outline" cx="0" cy="0" r="25" fill="#4C8EDA" stroke="#2870c2" stroke-width="2px"/><text text-anchor="middle" pointer-events="none" font-family="sans-serif" dy="1.5625" font-size="25" fill="#FFFFFF"/><text text-anchor="middle" pointer-events="none" x="0" y="5" font-size="10px" fill="#FFFFFF" font-family="sans-serif"> 11/30/20…</text></g><g class="node" transform="translate(59.246853518122585,89.47360873650295)"><circle class="outline" cx="0" cy="0" r="25" fill="#ECB5C9" stroke="#da7298" stroke-width="2px"/><text text-anchor="middle" pointer-events="none" font-family="sans-serif" dy="1.5625" font-size="25" fill="#2A2C34"/><text text-anchor="middle" pointer-events="none" x="0" y="5" font-size="10px" fill="#2A2C34" font-family="sans-serif"> ORD</text></g><g class="node" transform="translate(-80.02805300518774,80.15174531356283)"><circle class="outline" cx="0" cy="0" r="25" fill="#4C8EDA" stroke="#2870c2" stroke-width="2px"/><text text-anchor="middle" pointer-events="none" font-family="sans-serif" dy="1.5625" font-size="25" fill="#FFFFFF"/><text text-anchor="middle" pointer-events="none" x="0" y="5" font-size="10px" fill="#FFFFFF" font-family="sans-serif"> 11/17/20…</text></g></g></svg>