<svg xmlns="http://www.w3.org/2000/svg" width="750.5968017578125" height="618.4028930664062" viewBox="-516.6029052734375 -231.6016082763672 750.5968017578125 618.4028930664062"><title>Neo4j Graph Visualization</title><desc>Created using Neo4j (http://www.neo4j.com/)</desc><g class="layer relationships"><g class="relationship" transform="translate(97.43610202181564 126.80292311917691) rotate(192.00829412612785)"><path class="outline" fill="#A5ABB6" stroke="none" d="M 25 0.5 L 82.50424155969651 0.5 L 82.50424155969651 -0.5 L 25 -0.5 Z M 116.94955405969651 0.5 L 174.45379561939302 0.5 L 174.45379561939302 3.5 L 181.45379561939302 0 L 174.45379561939302 -3.5 L 174.45379561939302 -0.5 L 116.94955405969651 -0.5 Z"/><text text-anchor="middle" pointer-events="none" font-size="8px" fill="#000000" x="99.72689780969651" y="3" transform="rotate(180 99.72689780969651 0)" font-family="sans-serif">ORIGIN</text></g><g class="relationship" transform="translate(97.43610202181564 126.80292311917691) rotate(365.97718628351356)"><path class="outline" fill="#A5ABB6" stroke="none" d="M 25 0.5 L 26.23694612551894 0.5 L 26.23694612551894 -0.5 L 25 -0.5 Z M 74.90882112551894 0.5 L 76.14576725103788 0.5 L 76.14576725103788 3.5 L 83.14576725103788 0 L 76.14576725103788 -3.5 L 76.14576725103788 -0.5 L 74.90882112551894 -0.5 Z"/><text text-anchor="middle" pointer-events="none" font-size="8px" fill="#000000" x="50.57288362551894" y="3" font-family="sans-serif">DESTINA…</text></g><g class="relationship" transform="translate(83.02305868989886 68.63646173779995) rotate(535.3619560512964)"><path class="outline" fill="#A5ABB6" stroke="none" d="M 25 0.5 L 73.3468960755655 0.5 L 73.3468960755655 -0.5 L 25 -0.5 Z M 107.7922085755655 0.5 L 156.139104651131 0.5 L 156.139104651131 3.5 L 163.139104651131 0 L 156.139104651131 -3.5 L 156.139104651131 -0.5 L 107.7922085755655 -0.5 Z"/><text text-anchor="middle" pointer-events="none" font-size="8px" fill="#000000" x="90.5695523255655" y="3" transform="rotate(180 90.5695523255655 0)" font-family="sans-serif">ORIGIN</text></g><g class="relationship" transform="translate(83.02305868989886 68.63646173779995) rotate(389.6492868258936)"><path class="outline" fill="#A5ABB6" stroke="none" d="M 25 0.5 L 37.07948687996213 0.5 L 37.07948687996213 -0.5 L 25 -0.5 Z M 96.26698687996213 0.5 L 108.34647375992427 0.5 L 108.34647375992427 3.5 L 115.34647375992427 0 L 108.34647375992427 -3.5 L 108.34647375992427 -0.5 L 96.26698687996213 -0.5 Z"/><text text-anchor="middle" pointer-events="none" font-size="8px" fill="#000000" x="66.67323687996213" y="3" font-family="sans-serif">DESTINATION</text></g><g class="relationship" transform="translate(-16.207942831037748 -63.98375913746144) rotate(480.84735790582886)"><path class="outline" fill="#A5ABB6" stroke="none" d="M 25 0.5 L 65.37345823269051 0.5 L 65.37345823269051 -0.5 L 25 -0.5 Z M 99.81877073269051 0.5 L 140.19222896538102 0.5 L 140.19222896538102 3.5 L 147.19222896538102 0 L 140.19222896538102 -3.5 L 140.19222896538102 -0.5 L 99.81877073269051 -0.5 Z"/><text text-anchor="middle" pointer-events="none" font-size="8px" fill="#000000" x="82.59611448269051" y="3" transform="rotate(180 82.59611448269051 0)" font-family="sans-serif">ORIGIN</text></g><g class="relationship" transform="translate(-16.207942831037748 -63.98375913746144) rotate(347.0130968871176)"><path class="outline" fill="#A5ABB6" stroke="none" d="M 25 0.5 L 43.382745781903836 0.5 L 43.382745781903836 -0.5 L 25 -0.5 Z M 102.57024578190384 0.5 L 120.95299156380767 0.5 L 120.95299156380767 3.5 L 127.95299156380767 0 L 120.95299156380767 -3.5 L 120.95299156380767 -0.5 L 102.57024578190384 -0.5 Z"/><text text-anchor="middle" pointer-events="none" font-size="8px" fill="#000000" x="72.97649578190384" y="3" font-family="sans-serif">DESTINATION</text></g><g class="relationship" transform="translate(-267.9813113709154 28.26987788637721) rotate(378.77677588139613)"><path class="outline" fill="#A5ABB6" stroke="none" d="M 25 0.5 L 65.61280573281599 0.5 L 65.61280573281599 -0.5 L 25 -0.5 Z M 100.05811823281599 0.5 L 140.67092396563197 0.5 L 140.67092396563197 3.5 L 147.67092396563197 0 L 140.67092396563197 -3.5 L 140.67092396563197 -0.5 L 100.05811823281599 -0.5 Z"/><text text-anchor="middle" pointer-events="none" font-size="8px" fill="#000000" x="82.83546198281599" y="3" font-family="sans-serif">ORIGIN</text></g><g class="relationship" transform="translate(-267.9813113709154 28.26987788637721) rotate(506.8608135106048)"><path class="outline" fill="#A5ABB6" stroke="none" d="M 25 0.5 L 98.04788837081253 0.5 L 98.04788837081253 -0.5 L 25 -0.5 Z M 157.23538837081253 0.5 L 230.28327674162506 0.5 L 230.28327674162506 3.5 L 237.28327674162506 0 L 230.28327674162506 -3.5 L 230.28327674162506 -0.5 L 157.23538837081253 -0.5 Z"/><text text-anchor="middle" pointer-events="none" font-size="8px" fill="#000000" x="127.64163837081253" y="3" transform="rotate(180 127.64163837081253 0)" font-family="sans-serif">DESTINATION</text></g><g class="relationship" transform="translate(-2.605920988530965 -5.558256056265481) rotate(498.7343944512451)"><path class="outline" fill="#A5ABB6" stroke="none" d="M 25 0.5 L 47.056671921985796 0.5 L 47.056671921985796 -0.5 L 25 -0.5 Z M 81.5019844219858 0.5 L 103.55865634397159 0.5 L 103.55865634397159 3.5 L 110.55865634397159 0 L 103.55865634397159 -3.5 L 103.55865634397159 -0.5 L 81.5019844219858 -0.5 Z"/><text text-anchor="middle" pointer-events="none" font-size="8px" fill="#000000" x="64.2793281719858" y="3" transform="rotate(180 64.2793281719858 0)" font-family="sans-serif">ORIGIN</text></g><g class="relationship" transform="translate(-2.605920988530965 -5.558256056265481) rotate(325.5822653544581)"><path class="outline" fill="#A5ABB6" stroke="none" d="M 25 0.5 L 48.99639451720219 0.5 L 48.99639451720219 -0.5 L 25 -0.5 Z M 108.18389451720219 0.5 L 132.18028903440438 0.5 L 132.18028903440438 3.5 L 139.18028903440438 0 L 132.18028903440438 -3.5 L 132.18028903440438 -0.5 L 108.18389451720219 -0.5 Z"/><text text-anchor="middle" pointer-events="none" font-size="8px" fill="#000000" x="78.59014451720219" y="3" font-family="sans-serif">DESTINATION</text></g><g class="relationship" transform="translate(41.07370271344243 -46.48838675379626) rotate(498.16064484778116)"><path class="outline" fill="#A5ABB6" stroke="none" d="M 25 0.5 L 76.97543299866007 0.5 L 76.97543299866007 -0.5 L 25 -0.5 Z M 111.42074549866007 0.5 L 163.39617849732014 0.5 L 163.39617849732014 3.5 L 170.39617849732014 0 L 163.39617849732014 -3.5 L 163.39617849732014 -0.5 L 111.42074549866007 -0.5 Z"/><text text-anchor="middle" pointer-events="none" font-size="8px" fill="#000000" x="94.19808924866007" y="3" transform="rotate(180 94.19808924866007 0)" font-family="sans-serif">ORIGIN</text></g><g class="relationship" transform="translate(41.07370271344243 -46.48838675379626) rotate(330.5220093358863)"><path class="outline" fill="#A5ABB6" stroke="none" d="M 25 0.5 L 27.53410521890391 0.5 L 27.53410521890391 -0.5 L 25 -0.5 Z M 70.8700427189039 0.5 L 73.40414793780782 0.5 L 73.40414793780782 3.5 L 80.40414793780782 0 L 73.40414793780782 -3.5 L 73.40414793780782 -0.5 L 70.8700427189039 -0.5 Z"/><text text-anchor="middle" pointer-events="none" font-size="8px" fill="#000000" x="49.20207396890391" y="3" font-family="sans-serif">DESTIN…</text></g><g class="relationship" transform="translate(-102.64368576224868 -64.07436639365811) rotate(450.7189608967587)"><path class="outline" fill="#A5ABB6" stroke="none" d="M 25 0.5 L 53.245116646202945 0.5 L 53.245116646202945 -0.5 L 25 -0.5 Z M 87.69042914620294 0.5 L 115.93554579240589 0.5 L 115.93554579240589 3.5 L 122.93554579240589 0 L 115.93554579240589 -3.5 L 115.93554579240589 -0.5 L 87.69042914620294 -0.5 Z"/><text text-anchor="middle" pointer-events="none" font-size="8px" fill="#000000" x="70.46777289620294" y="3" transform="rotate(180 70.46777289620294 0)" font-family="sans-serif">ORIGIN</text></g><g class="relationship" transform="translate(-102.64368576224868 -64.07436639365811) rotate(292.6258234000286)"><path class="outline" fill="#A5ABB6" stroke="none" d="M 25 0.5 L 41.94509044745702 0.5 L 41.94509044745702 -0.5 L 25 -0.5 Z M 101.13259044745702 0.5 L 118.07768089491404 0.5 L 118.07768089491404 3.5 L 125.07768089491404 0 L 118.07768089491404 -3.5 L 118.07768089491404 -0.5 L 101.13259044745702 -0.5 Z"/><text text-anchor="middle" pointer-events="none" font-size="8px" fill="#000000" x="71.53884044745702" y="3" font-family="sans-serif">DESTINATION</text></g><g class="relationship" transform="translate(-311.38571086203774 84.12494693011176) rotate(359.9237257131472)"><path class="outline" fill="#A5ABB6" stroke="none" d="M 25 0.5 L 82.72030733300129 0.5 L 82.72030733300129 -0.5 L 25 -0.5 Z M 117.16561983300129 0.5 L 174.88592716600257 0.5 L 174.88592716600257 3.5 L 181.88592716600257 0 L 174.88592716600257 -3.5 L 174.88592716600257 -0.5 L 117.16561983300129 -0.5 Z"/><text text-anchor="middle" pointer-events="none" font-size="8px" fill="#000000" x="99.94296358300129" y="3" font-family="sans-serif">ORIGIN</text></g><g class="relationship" transform="translate(-311.38571086203774 84.12494693011176) rotate(513.5860177942617)"><path class="outline" fill="#A5ABB6" stroke="none" d="M 25 0.5 L 65.28530433201432 0.5 L 65.28530433201432 -0.5 L 25 -0.5 Z M 124.47280433201432 0.5 L 164.75810866402864 0.5 L 164.75810866402864 3.5 L 171.75810866402864 0 L 164.75810866402864 -3.5 L 164.75810866402864 -0.5 L 124.47280433201432 -0.5 Z"/><text text-anchor="middle" pointer-events="none" font-size="8px" fill="#000000" x="94.87905433201432" y="3" transform="rotate(180 94.87905433201432 0)" font-family="sans-serif">DESTINATION</text></g><g class="relationship" transform="translate(-259.5402087173711 -42.352652869603645) rotate(399.1454623639022)"><path class="outline" fill="#A5ABB6" stroke="none" d="M 25 0.5 L 79.2329191247239 0.5 L 79.2329191247239 -0.5 L 25 -0.5 Z M 113.6782316247239 0.5 L 167.9111507494478 0.5 L 167.9111507494478 3.5 L 174.9111507494478 0 L 167.9111507494478 -3.5 L 167.9111507494478 -0.5 L 113.6782316247239 -0.5 Z"/><text text-anchor="middle" pointer-events="none" font-size="8px" fill="#000000" x="96.4555753747239" y="3" font-family="sans-serif">ORIGIN</text></g><g class="relationship" transform="translate(-259.5402087173711 -42.352652869603645) rotate(496.8212270655232)"><path class="outline" fill="#A5ABB6" stroke="none" d="M 25 0.5 L 123.2801935809708 0.5 L 123.2801935809708 -0.5 L 25 -0.5 Z M 182.4676935809708 0.5 L 280.7478871619416 0.5 L 280.7478871619416 3.5 L 287.7478871619416 0 L 280.7478871619416 -3.5 L 280.7478871619416 -0.5 L 182.4676935809708 -0.5 Z"/><text text-anchor="middle" pointer-events="none" font-size="8px" fill="#000000" x="152.8739435809708" y="3" transform="rotate(180 152.8739435809708 0)" font-family="sans-serif">DESTINATION</text></g><g class="relationship" transform="translate(54.38995002316437 168.42174065720542) rotate(208.02499739154695)"><path class="outline" fill="#A5ABB6" stroke="none" d="M 25 0.5 L 69.27521051983616 0.5 L 69.27521051983616 -0.5 L 25 -0.5 Z M 103.72052301983616 0.5 L 147.99573353967233 0.5 L 147.99573353967233 3.5 L 154.99573353967233 0 L 147.99573353967233 -3.5 L 147.99573353967233 -0.5 L 103.72052301983616 -0.5 Z"/><text text-anchor="middle" pointer-events="none" font-size="8px" fill="#000000" x="86.49786676983616" y="3" transform="rotate(180 86.49786676983616 0)" font-family="sans-serif">ORIGIN</text></g><g class="relationship" transform="translate(54.38995002316437 168.42174065720542) rotate(348.60356667250926)"><path class="outline" fill="#A5ABB6" stroke="none" d="M 25 0.5 L 43.72279415681325 0.5 L 43.72279415681325 -0.5 L 25 -0.5 Z M 102.91029415681325 0.5 L 121.6330883136265 0.5 L 121.6330883136265 3.5 L 128.6330883136265 0 L 121.6330883136265 -3.5 L 121.6330883136265 -0.5 L 102.91029415681325 -0.5 Z"/><text text-anchor="middle" pointer-events="none" font-size="8px" fill="#000000" x="73.31654415681325" y="3" font-family="sans-serif">DESTINATION</text></g><g class="relationship" transform="translate(39.901244863968344 110.26350462754183) rotate(190.36598323424323)"><path class="outline" fill="#A5ABB6" stroke="none" d="M 25 0.5 L 52.67592668018003 0.5 L 52.67592668018003 -0.5 L 25 -0.5 Z M 87.12123918018003 0.5 L 114.79716586036005 0.5 L 114.79716586036005 3.5 L 121.79716586036005 0 L 114.79716586036005 -3.5 L 114.79716586036005 -0.5 L 87.12123918018003 -0.5 Z"/><text text-anchor="middle" pointer-events="none" font-size="8px" fill="#000000" x="69.89858293018003" y="3" transform="rotate(180 69.89858293018003 0)" font-family="sans-serif">ORIGIN</text></g><g class="relationship" transform="translate(39.901244863968344 110.26350462754183) rotate(369.5586858073294)"><path class="outline" fill="#A5ABB6" stroke="none" d="M 25 0.5 L 50.614798339773245 0.5 L 50.614798339773245 -0.5 L 25 -0.5 Z M 109.80229833977324 0.5 L 135.4170966795465 0.5 L 135.4170966795465 3.5 L 142.4170966795465 0 L 135.4170966795465 -3.5 L 135.4170966795465 -0.5 L 109.80229833977324 -0.5 Z"/><text text-anchor="middle" pointer-events="none" font-size="8px" fill="#000000" x="80.20854833977324" y="3" font-family="sans-serif">DESTINATION</text></g><g class="relationship" transform="translate(-106.14803456034086 238.95232663407327) rotate(270.6087818194367)"><path class="outline" fill="#A5ABB6" stroke="none" d="M 25 0.5 L 56.833118529792145 0.5 L 56.833118529792145 -0.5 L 25 -0.5 Z M 91.27843102979215 0.5 L 123.11154955958429 0.5 L 123.11154955958429 3.5 L 130.1115495595843 0 L 123.11154955958429 -3.5 L 123.11154955958429 -0.5 L 91.27843102979215 -0.5 Z"/><text text-anchor="middle" pointer-events="none" font-size="8px" fill="#000000" x="74.05577477979215" y="3" font-family="sans-serif">ORIGIN</text></g><g class="relationship" transform="translate(-106.14803456034086 238.95232663407327) rotate(415.4534479280982)"><path class="outline" fill="#A5ABB6" stroke="none" d="M 25 0.5 L 39.05259502373008 0.5 L 39.05259502373008 -0.5 L 25 -0.5 Z M 98.24009502373008 0.5 L 112.29269004746016 0.5 L 112.29269004746016 3.5 L 119.29269004746016 0 L 112.29269004746016 -3.5 L 112.29269004746016 -0.5 L 98.24009502373008 -0.5 Z"/><text text-anchor="middle" pointer-events="none" font-size="8px" fill="#000000" x="68.64634502373008" y="3" font-family="sans-serif">DESTINATION</text></g><g class="relationship" transform="translate(-318.0464912675783 143.67807111650006) rotate(344.34891863916346)"><path class="outline" fill="#A5ABB6" stroke="none" d="M 25 0.5 L 90.16193693845379 0.5 L 90.16193693845379 -0.5 L 25 -0.5 Z M 124.60724943845379 0.5 L 189.76918637690758 0.5 L 189.76918637690758 3.5 L 196.76918637690758 0 L 189.76918637690758 -3.5 L 189.76918637690758 -0.5 L 124.60724943845379 -0.5 Z"/><text text-anchor="middle" pointer-events="none" font-size="8px" fill="#000000" x="107.38459318845379" y="3" font-family="sans-serif">ORIGIN</text></g><g class="relationship" transform="translate(-318.0464912675783 143.67807111650006) rotate(530.6310590533816)"><path class="outline" fill="#A5ABB6" stroke="none" d="M 25 0.5 L 52.83064219534904 0.5 L 52.83064219534904 -0.5 L 25 -0.5 Z M 112.01814219534904 0.5 L 139.84878439069809 0.5 L 139.84878439069809 3.5 L 146.84878439069809 0 L 139.84878439069809 -3.5 L 139.84878439069809 -0.5 L 112.01814219534904 -0.5 Z"/><text text-anchor="middle" pointer-events="none" font-size="8px" fill="#000000" x="82.42439219534904" y="3" transform="rotate(180 82.42439219534904 0)" font-family="sans-serif">DESTINATION</text></g><g class="relationship" transform="translate(-271.99814799250936 243.83586290998417) rotate(316.314022100134)"><path class="outline" fill="#A5ABB6" stroke="none" d="M 25 0.5 L 95.0910589114538 0.5 L 95.0910589114538 -0.5 L 25 -0.5 Z M 129.53637141145379 0.5 L 199.6274303229076 0.5 L 199.6274303229076 3.5 L 206.6274303229076 0 L 199.6274303229076 -3.5 L 199.6274303229076 -0.5 L 129.53637141145379 -0.5 Z"/><text text-anchor="middle" pointer-events="none" font-size="8px" fill="#000000" x="112.3137151614538" y="3" font-family="sans-serif">ORIGIN</text></g><g class="relationship" transform="translate(-271.99814799250936 243.83586290998417) rotate(198.51003447660804)"><path class="outline" fill="#A5ABB6" stroke="none" d="M 25 0.5 L 80.5896939506383 0.5 L 80.5896939506383 -0.5 L 25 -0.5 Z M 139.77719395063832 0.5 L 195.3668879012766 0.5 L 195.3668879012766 3.5 L 202.3668879012766 0 L 195.3668879012766 -3.5 L 195.3668879012766 -0.5 L 139.77719395063832 -0.5 Z"/><text text-anchor="middle" pointer-events="none" font-size="8px" fill="#000000" x="110.1834439506383" y="3" transform="rotate(180 110.1834439506383 0)" font-family="sans-serif">DESTINATION</text></g><g class="relationship" transform="translate(-263.22288690480895 119.70730208547853) rotate(347.26976771796626)"><path class="outline" fill="#A5ABB6" stroke="none" d="M 25 0.5 L 60.63879795537214 0.5 L 60.63879795537214 -0.5 L 25 -0.5 Z M 95.08411045537214 0.5 L 130.72290841074428 0.5 L 130.72290841074428 3.5 L 137.72290841074428 0 L 130.72290841074428 -3.5 L 130.72290841074428 -0.5 L 95.08411045537214 -0.5 Z"/><text text-anchor="middle" pointer-events="none" font-size="8px" fill="#000000" x="77.86145420537214" y="3" font-family="sans-serif">ORIGIN</text></g><g class="relationship" transform="translate(-263.22288690480895 119.70730208547853) rotate(526.965090625413)"><path class="outline" fill="#A5ABB6" stroke="none" d="M 25 0.5 L 82.06353849591613 0.5 L 82.06353849591613 -0.5 L 25 -0.5 Z M 141.25103849591613 0.5 L 198.31457699183227 0.5 L 198.31457699183227 3.5 L 205.31457699183227 0 L 198.31457699183227 -3.5 L 198.31457699183227 -0.5 L 141.25103849591613 -0.5 Z"/><text text-anchor="middle" pointer-events="none" font-size="8px" fill="#000000" x="111.65728849591613" y="3" transform="rotate(180 111.65728849591613 0)" font-family="sans-serif">DESTINATION</text></g><g class="relationship" transform="translate(10.387962821231703 210.71841382531738) rotate(227.83713534311562)"><path class="outline" fill="#A5ABB6" stroke="none" d="M 25 0.5 L 64.8561808178916 0.5 L 64.8561808178916 -0.5 L 25 -0.5 Z M 99.3014933178916 0.5 L 139.1576741357832 0.5 L 139.1576741357832 3.5 L 146.1576741357832 0 L 139.1576741357832 -3.5 L 139.1576741357832 -0.5 L 99.3014933178916 -0.5 Z"/><text text-anchor="middle" pointer-events="none" font-size="8px" fill="#000000" x="82.0788370678916" y="3" transform="rotate(180 82.0788370678916 0)" font-family="sans-serif">ORIGIN</text></g><g class="relationship" transform="translate(10.387962821231703 210.71841382531738) rotate(394.92218898389524)"><path class="outline" fill="#A5ABB6" stroke="none" d="M 25 0.5 L 50.574066340062956 0.5 L 50.574066340062956 -0.5 L 25 -0.5 Z M 109.76156634006296 0.5 L 135.3356326801259 0.5 L 135.3356326801259 3.5 L 142.3356326801259 0 L 135.3356326801259 -3.5 L 135.3356326801259 -0.5 L 109.76156634006296 -0.5 Z"/><text text-anchor="middle" pointer-events="none" font-size="8px" fill="#000000" x="80.16781634006296" y="3" font-family="sans-serif">DESTINATION</text></g><g class="relationship" transform="translate(54.754144235774945 11.855133190360576) rotate(515.6735838461042)"><path class="outline" fill="#A5ABB6" stroke="none" d="M 25 0.5 L 66.66307701697407 0.5 L 66.66307701697407 -0.5 L 25 -0.5 Z M 101.10838951697407 0.5 L 142.77146653394814 0.5 L 142.77146653394814 3.5 L 149.77146653394814 0 L 142.77146653394814 -3.5 L 142.77146653394814 -0.5 L 101.10838951697407 -0.5 Z"/><text text-anchor="middle" pointer-events="none" font-size="8px" fill="#000000" x="83.88573326697407" y="3" transform="rotate(180 83.88573326697407 0)" font-family="sans-serif">ORIGIN</text></g><g class="relationship" transform="translate(54.754144235774945 11.855133190360576) rotate(305.3153416586978)"><path class="outline" fill="#A5ABB6" stroke="none" d="M 25 0.5 L 34.43938752645033 0.5 L 34.43938752645033 -0.5 L 25 -0.5 Z M 93.62688752645033 0.5 L 103.06627505290066 0.5 L 103.06627505290066 3.5 L 110.06627505290066 0 L 103.06627505290066 -3.5 L 103.06627505290066 -0.5 L 93.62688752645033 -0.5 Z"/><text text-anchor="middle" pointer-events="none" font-size="8px" fill="#000000" x="64.03313752645033" y="3" font-family="sans-serif">DESTINATION</text></g><g class="relationship" transform="translate(-269.8695161927121 179.2141578507446) rotate(330.02898954624084)"><path class="outline" fill="#A5ABB6" stroke="none" d="M 25 0.5 L 74.72562754946638 0.5 L 74.72562754946638 -0.5 L 25 -0.5 Z M 109.17094004946638 0.5 L 158.89656759893276 0.5 L 158.89656759893276 3.5 L 165.89656759893276 0 L 158.89656759893276 -3.5 L 158.89656759893276 -0.5 L 109.17094004946638 -0.5 Z"/><text text-anchor="middle" pointer-events="none" font-size="8px" fill="#000000" x="91.94828379946638" y="3" font-family="sans-serif">ORIGIN</text></g><g class="relationship" transform="translate(-269.8695161927121 179.2141578507446) rotate(181.988753749877)"><path class="outline" fill="#A5ABB6" stroke="none" d="M 25 0.5 L 75.83856035038245 0.5 L 75.83856035038245 -0.5 L 25 -0.5 Z M 135.02606035038247 0.5 L 185.8646207007649 0.5 L 185.8646207007649 3.5 L 192.8646207007649 0 L 185.8646207007649 -3.5 L 185.8646207007649 -0.5 L 135.02606035038247 -0.5 Z"/><text text-anchor="middle" pointer-events="none" font-size="8px" fill="#000000" x="105.43231035038245" y="3" transform="rotate(180 105.43231035038245 0)" font-family="sans-serif">DESTINATION</text></g><g class="relationship" transform="translate(-47.715196177388925 225.6461149748234) rotate(248.17555596759695)"><path class="outline" fill="#A5ABB6" stroke="none" d="M 25 0.5 L 55.6494278819424 0.5 L 55.6494278819424 -0.5 L 25 -0.5 Z M 90.0947403819424 0.5 L 120.7441682638848 0.5 L 120.7441682638848 3.5 L 127.7441682638848 0 L 120.7441682638848 -3.5 L 120.7441682638848 -0.5 L 90.0947403819424 -0.5 Z"/><text text-anchor="middle" pointer-events="none" font-size="8px" fill="#000000" x="72.8720841319424" y="3" transform="rotate(180 72.8720841319424 0)" font-family="sans-serif">ORIGIN</text></g><g class="relationship" transform="translate(-47.715196177388925 225.6461149748234) rotate(439.96236664177)"><path class="outline" fill="#A5ABB6" stroke="none" d="M 25 0.5 L 34.010966394907214 0.5 L 34.010966394907214 -0.5 L 25 -0.5 Z M 93.19846639490721 0.5 L 102.20943278981443 0.5 L 102.20943278981443 3.5 L 109.20943278981443 0 L 102.20943278981443 -3.5 L 102.20943278981443 -0.5 L 93.19846639490721 -0.5 Z"/><text text-anchor="middle" pointer-events="none" font-size="8px" fill="#000000" x="63.604716394907214" y="3" font-family="sans-serif">DESTINATION</text></g></g><g class="layer nodes"><g class="node" transform="translate(-104.49996701691667,83.84953271936752)"><circle class="outline" cx="0" cy="0" r="25" fill="#ECB5C9" stroke="#da7298" stroke-width="2px"/><text text-anchor="middle" pointer-events="none" font-family="sans-serif" dy="1.5625" font-size="25" fill="#2A2C34"/><text text-anchor="middle" pointer-events="none" x="0" y="5" font-size="10px" fill="#2A2C34" font-family="sans-serif"> LAX</text></g><g class="node" transform="translate(204.9939280063009,138.0644080926093)"><circle class="outline" cx="0" cy="0" r="25" fill="#ECB5C9" stroke="#da7298" stroke-width="2px"/><text text-anchor="middle" pointer-events="none" font-family="sans-serif" dy="1.5625" font-size="25" fill="#2A2C34"/><text text-anchor="middle" pointer-events="none" x="0" y="5" font-size="10px" fill="#2A2C34" font-family="sans-serif"> FAT</text></g><g class="node" transform="translate(132.8327344429018,-98.35662846842686)"><circle class="outline" cx="0" cy="0" r="25" fill="#ECB5C9" stroke="#da7298" stroke-width="2px"/><text text-anchor="middle" pointer-events="none" font-family="sans-serif" dy="1.5625" font-size="25" fill="#2A2C34"/><text text-anchor="middle" pointer-events="none" x="0" y="5" font-size="10px" fill="#2A2C34" font-family="sans-serif"> SMF</text></g><g class="node" transform="translate(-487.6029078784386,171.6535296944218)"><circle class="outline" cx="0" cy="0" r="25" fill="#ECB5C9" stroke="#da7298" stroke-width="2px"/><text text-anchor="middle" pointer-events="none" font-family="sans-serif" dy="1.5625" font-size="25" fill="#2A2C34"/><text text-anchor="middle" pointer-events="none" x="0" y="5" font-size="10px" fill="#2A2C34" font-family="sans-serif"> ABQ</text></g><g class="node" transform="translate(-44.907094404771065,-202.60160675170206)"><circle class="outline" cx="0" cy="0" r="25" fill="#ECB5C9" stroke="#da7298" stroke-width="2px"/><text text-anchor="middle" pointer-events="none" font-family="sans-serif" dy="1.5625" font-size="25" fill="#2A2C34"/><text text-anchor="middle" pointer-events="none" x="0" y="5" font-size="10px" fill="#2A2C34" font-family="sans-serif"> IAH</text></g><g class="node" transform="translate(-24.323164765635827,357.80126892727156)"><circle class="outline" cx="0" cy="0" r="25" fill="#ECB5C9" stroke="#da7298" stroke-width="2px"/><text text-anchor="middle" pointer-events="none" font-family="sans-serif" dy="1.5625" font-size="25" fill="#2A2C34"/><text text-anchor="middle" pointer-events="none" x="0" y="5" font-size="10px" fill="#2A2C34" font-family="sans-serif"> TUS</text></g><g class="node" transform="translate(147.59150811305904,306.51194765621597)"><circle class="outline" cx="0" cy="0" r="25" fill="#ECB5C9" stroke="#da7298" stroke-width="2px"/><text text-anchor="middle" pointer-events="none" font-family="sans-serif" dy="1.5625" font-size="25" fill="#2A2C34"/><text text-anchor="middle" pointer-events="none" x="0" y="5" font-size="10px" fill="#2A2C34" font-family="sans-serif"> LAS</text></g><g class="node" transform="translate(97.43610202181564,126.80292311917691)"><circle class="outline" cx="0" cy="0" r="25" fill="#4C8EDA" stroke="#2870c2" stroke-width="2px"/><text text-anchor="middle" pointer-events="none" font-family="sans-serif" dy="1.5625" font-size="25" fill="#FFFFFF"/><text text-anchor="middle" pointer-events="none" x="0" y="5" font-size="10px" fill="#FFFFFF" font-family="sans-serif"> 11/4/2015</text></g><g class="node" transform="translate(83.02305868989886,68.63646173779995)"><circle class="outline" cx="0" cy="0" r="25" fill="#4C8EDA" stroke="#2870c2" stroke-width="2px"/><text text-anchor="middle" pointer-events="none" font-family="sans-serif" dy="1.5625" font-size="25" fill="#FFFFFF"/><text text-anchor="middle" pointer-events="none" x="0" y="5" font-size="10px" fill="#FFFFFF" font-family="sans-serif"> 11/3/2015</text></g><g class="node" transform="translate(-16.207942831037748,-63.98375913746144)"><circle class="outline" cx="0" cy="0" r="25" fill="#4C8EDA" stroke="#2870c2" stroke-width="2px"/><text text-anchor="middle" pointer-events="none" font-family="sans-serif" dy="1.5625" font-size="25" fill="#FFFFFF"/><text text-anchor="middle" pointer-events="none" x="0" y="5" font-size="10px" fill="#FFFFFF" font-family="sans-serif"> 11/3/2015</text></g><g class="node" transform="translate(-267.9813113709154,28.26987788637721)"><circle class="outline" cx="0" cy="0" r="25" fill="#4C8EDA" stroke="#2870c2" stroke-width="2px"/><text text-anchor="middle" pointer-events="none" font-family="sans-serif" dy="1.5625" font-size="25" fill="#FFFFFF"/><text text-anchor="middle" pointer-events="none" x="0" y="5" font-size="10px" fill="#FFFFFF" font-family="sans-serif"> 11/3/2015</text></g><g class="node" transform="translate(-2.605920988530965,-5.558256056265481)"><circle class="outline" cx="0" cy="0" r="25" fill="#4C8EDA" stroke="#2870c2" stroke-width="2px"/><text text-anchor="middle" pointer-events="none" font-family="sans-serif" dy="1.5625" font-size="25" fill="#FFFFFF"/><text text-anchor="middle" pointer-events="none" x="0" y="5" font-size="10px" fill="#FFFFFF" font-family="sans-serif"> 11/2/2015</text></g><g class="node" transform="translate(41.07370271344243,-46.48838675379626)"><circle class="outline" cx="0" cy="0" r="25" fill="#4C8EDA" stroke="#2870c2" stroke-width="2px"/><text text-anchor="middle" pointer-events="none" font-family="sans-serif" dy="1.5625" font-size="25" fill="#FFFFFF"/><text text-anchor="middle" pointer-events="none" x="0" y="5" font-size="10px" fill="#FFFFFF" font-family="sans-serif"> 11/1/2015</text></g><g class="node" transform="translate(-102.64368576224868,-64.07436639365811)"><circle class="outline" cx="0" cy="0" r="25" fill="#4C8EDA" stroke="#2870c2" stroke-width="2px"/><text text-anchor="middle" pointer-events="none" font-family="sans-serif" dy="1.5625" font-size="25" fill="#FFFFFF"/><text text-anchor="middle" pointer-events="none" x="0" y="5" font-size="10px" fill="#FFFFFF" font-family="sans-serif"> 11/30/20…</text></g><g class="node" transform="translate(-311.38571086203774,84.12494693011176)"><circle class="outline" cx="0" cy="0" r="25" fill="#4C8EDA" stroke="#2870c2" stroke-width="2px"/><text text-anchor="middle" pointer-events="none" font-family="sans-serif" dy="1.5625" font-size="25" fill="#FFFFFF"/><text text-anchor="middle" pointer-events="none" x="0" y="5" font-size="10px" fill="#FFFFFF" font-family="sans-serif"> 11/4/2015</text></g><g class="node" transform="translate(-259.5402087173711,-42.352652869603645)"><circle class="outline" cx="0" cy="0" r="25" fill="#4C8EDA" stroke="#2870c2" stroke-width="2px"/><text text-anchor="middle" pointer-events="none" font-family="sans-serif" dy="1.5625" font-size="25" fill="#FFFFFF"/><text text-anchor="middle" pointer-events="none" x="0" y="5" font-size="10px" fill="#FFFFFF" font-family="sans-serif"> 11/1/2015</text></g><g class="node" transform="translate(54.38995002316437,168.42174065720542)"><circle class="outline" cx="0" cy="0" r="25" fill="#4C8EDA" stroke="#2870c2" stroke-width="2px"/><text text-anchor="middle" pointer-events="none" font-family="sans-serif" dy="1.5625" font-size="25" fill="#FFFFFF"/><text text-anchor="middle" pointer-events="none" x="0" y="5" font-size="10px" fill="#FFFFFF" font-family="sans-serif"> 11/1/2015</text></g><g class="node" transform="translate(39.901244863968344,110.26350462754183)"><circle class="outline" cx="0" cy="0" r="25" fill="#4C8EDA" stroke="#2870c2" stroke-width="2px"/><text text-anchor="middle" pointer-events="none" font-family="sans-serif" dy="1.5625" font-size="25" fill="#FFFFFF"/><text text-anchor="middle" pointer-events="none" x="0" y="5" font-size="10px" fill="#FFFFFF" font-family="sans-serif"> 11/2/2015</text></g><g class="node" transform="translate(-106.14803456034086,238.95232663407327)"><circle class="outline" cx="0" cy="0" r="25" fill="#4C8EDA" stroke="#2870c2" stroke-width="2px"/><text text-anchor="middle" pointer-events="none" font-family="sans-serif" dy="1.5625" font-size="25" fill="#FFFFFF"/><text text-anchor="middle" pointer-events="none" x="0" y="5" font-size="10px" fill="#FFFFFF" font-family="sans-serif"> 11/2/2015</text></g><g class="node" transform="translate(-318.0464912675783,143.67807111650006)"><circle class="outline" cx="0" cy="0" r="25" fill="#4C8EDA" stroke="#2870c2" stroke-width="2px"/><text text-anchor="middle" pointer-events="none" font-family="sans-serif" dy="1.5625" font-size="25" fill="#FFFFFF"/><text text-anchor="middle" pointer-events="none" x="0" y="5" font-size="10px" fill="#FFFFFF" font-family="sans-serif"> 11/1/2015</text></g><g class="node" transform="translate(-271.99814799250936,243.83586290998417)"><circle class="outline" cx="0" cy="0" r="25" fill="#4C8EDA" stroke="#2870c2" stroke-width="2px"/><text text-anchor="middle" pointer-events="none" font-family="sans-serif" dy="1.5625" font-size="25" fill="#FFFFFF"/><text text-anchor="middle" pointer-events="none" x="0" y="5" font-size="10px" fill="#FFFFFF" font-family="sans-serif"> 11/3/2015</text></g><g class="node" transform="translate(-263.22288690480895,119.70730208547853)"><circle class="outline" cx="0" cy="0" r="25" fill="#4C8EDA" stroke="#2870c2" stroke-width="2px"/><text text-anchor="middle" pointer-events="none" font-family="sans-serif" dy="1.5625" font-size="25" fill="#FFFFFF"/><text text-anchor="middle" pointer-events="none" x="0" y="5" font-size="10px" fill="#FFFFFF" font-family="sans-serif"> 11/2/2015</text></g><g class="node" transform="translate(10.387962821231703,210.71841382531738)"><circle class="outline" cx="0" cy="0" r="25" fill="#4C8EDA" stroke="#2870c2" stroke-width="2px"/><text text-anchor="middle" pointer-events="none" font-family="sans-serif" dy="1.5625" font-size="25" fill="#FFFFFF"/><text text-anchor="middle" pointer-events="none" x="0" y="5" font-size="10px" fill="#FFFFFF" font-family="sans-serif"> 11/29/20…</text></g><g class="node" transform="translate(54.754144235774945,11.855133190360576)"><circle class="outline" cx="0" cy="0" r="25" fill="#4C8EDA" stroke="#2870c2" stroke-width="2px"/><text text-anchor="middle" pointer-events="none" font-family="sans-serif" dy="1.5625" font-size="25" fill="#FFFFFF"/><text text-anchor="middle" pointer-events="none" x="0" y="5" font-size="10px" fill="#FFFFFF" font-family="sans-serif"> 11/4/2015</text></g><g class="node" transform="translate(-269.8695161927121,179.2141578507446)"><circle class="outline" cx="0" cy="0" r="25" fill="#4C8EDA" stroke="#2870c2" stroke-width="2px"/><text text-anchor="middle" pointer-events="none" font-family="sans-serif" dy="1.5625" font-size="25" fill="#FFFFFF"/><text text-anchor="middle" pointer-events="none" x="0" y="5" font-size="10px" fill="#FFFFFF" font-family="sans-serif"> 11/2/2015</text></g><g class="node" transform="translate(-47.715196177388925,225.6461149748234)"><circle class="outline" cx="0" cy="0" r="25" fill="#4C8EDA" stroke="#2870c2" stroke-width="2px"/><text text-anchor="middle" pointer-events="none" font-family="sans-serif" dy="1.5625" font-size="25" fill="#FFFFFF"/><text text-anchor="middle" pointer-events="none" x="0" y="5" font-size="10px" fill="#FFFFFF" font-family="sans-serif"> 11/1/2015</text></g></g></svg>